[Header]
FileType HTR
DataType HTRS
FileVersion 1
NumSegments 22
NumFrames 4
DataFrameRate 24
EulerRotationOrder ZYX
CalibrationUnits mm
RotationUnits Degrees
GlobalAxisofGravity Y
BoneLengthAxis Y
ScaleFactor 1.0
[SegmentNames&Hierarchy]
reference	GLOBAL
Hips	reference
Spine	Hips
Spine1	Spine
Neck	Spine1
Head	Neck
LeftShoulder	Spine1
LeftArm	LeftShoulder
LeftForeArm	LeftArm
LeftHand	LeftForeArm
RightShoulder	Spine1
RightArm	RightShoulder
RightForeArm	RightArm
RightHand	RightForeArm
LeftUpLeg	Hips
LeftLeg	LeftUpLeg
LeftFoot	LeftLeg
LeftToeBase	LeftFoot
RightUpLeg	Hips
RightLeg	RightUpLeg
RightFoot	RightLeg
RightToeBase	RightFoot
[BasePosition]
reference	0	0	0	0	0	0	1
Hips	0	0	0	0	0	0	1
Spine	0	0	0	0	-0	90	1
Spine1	0	0	0	0	0	0	1
Neck	0	0	0	-7.352327771	-7.352327771	90	1
Head	0	0	0	0	-0	90	1
LeftShoulder	0	0	0	0	0	0	1
LeftArm	0	0	0	0	0	0	1
LeftForeArm	0	0	0	0	0	0	1
LeftHand	0	0	0	0	0	0	1
RightShoulder	0	0	0	0	-0	180	1
RightArm	0	0	0	0	-0	180	1
RightForeArm	0	0	0	0	-0	180	1
RightHand	0	0	0	0	-0	180	1
LeftUpLeg	0	0	0	0	-0	-90	1
LeftLeg	0	0	0	0	-0	-90	1
LeftFoot	0	0	0	66.57146043	-66.57146043	-90	1
LeftToeBase	0	0	0	0	-90	0	1
RightUpLeg	0	0	0	0	-0	-90	1
RightLeg	0	0	0	0	-0	-90	1
RightFoot	0	0	0	66.57146043	-66.57146043	-90	1
RightToeBase	0	0	0	0	-90	0	1
[reference]
1	0	0	0	0	-0	0	1.0
2	0	0	0	0	-0	0	1.0
3	0	0	0	0	-0	0	1.0
4	0	0	0	0	-0	0	1.0
[Hips]
1	7.109590054	8.308119774	-0.433430016	10.75114727	-78.40326691	-4.145619392	1.0
2	7.109590054	8.308119774	-0.433430016	10.84426117	-78.38335419	-4.26599884	1.0
3	7.109590054	8.308119774	-0.433430016	10.65139866	-78.39054871	-4.186403275	1.0
4	7.109590054	8.308119774	-0.433430016	10.42616272	-78.46655273	-4.059067726	1.0
[Spine]
1	0	0.7457100153	0	-11.808074	0.608371675	-90.76898193	1.0
2	0	0.7457100153	0	-11.76542664	0.4668683708	-90.78700256	1.0
3	0	0.7457100153	0	-11.65525055	0.370071888	-90.84824371	1.0
4	0	0.7457100153	0	-11.57396889	0.3511110544	-90.88340759	1.0
[Spine1]
1	0	2.140589952	0	10.30000496	0.1158888713	1.288517237	1.0
2	0	2.140589952	0	10.27978706	0.07393339276	1.251839042	1.0
3	0	2.140589952	0	10.26244164	0.04032531381	1.268583298	1.0
4	0	2.140589952	0	10.30923462	0.04111422598	1.229821444	1.0
[Neck]
1	0	2.32246995	0	-15.20291138	4.323553085	-90.74492645	1.0
2	0	2.32246995	0	-15.38487244	4.219543934	-90.67420959	1.0
3	0	2.32246995	0	-15.4771347	4.019741058	-90.7245636	1.0
4	0	2.32246995	0	-15.4648838	3.848578453	-90.79080963	1.0
[Head]
1	0	1.409579992	0.1818799973	-4.076766968	-2.944950581	-91.68807983	1.0
2	0	1.409579992	0.1818799973	-4.101341248	-3.052770138	-91.74564362	1.0
3	0	1.409579992	0.1818799973	-4.079978943	-3.254946709	-91.76582336	1.0
4	0	1.409579992	0.1818799973	-4.073215008	-3.428810596	-91.7613678	1.0
[LeftShoulder]
1	0.3668199778	1.946700096	-0.02662999928	-15.07204056	-12.76199913	-1.682185054	1.0
2	0.3668199778	1.946700096	-0.02662999928	-15.05870819	-12.83283424	-1.749169469	1.0
3	0.3668199778	1.946700096	-0.02662999928	-15.28709602	-12.97004128	-1.884373069	1.0
4	0.3668199778	1.946700096	-0.02662999928	-15.51129436	-12.98688602	-1.943718195	1.0
[LeftArm]
1	1.140689969	0	0	42.56745529	14.01766014	-77.37036896	1.0
2	1.140689969	0	0	42.6725502	13.79901314	-77.17351532	1.0
3	1.140689969	0	0	42.65817642	13.90433598	-76.91159821	1.0
4	1.140689969	0	0	42.69563675	13.97763062	-76.73615265	1.0
[LeftForeArm]
1	2.749800205	0	0	-16.25083733	-14.03548622	3.218954802	1.0
2	2.749800205	0	0	-16.20220757	-14.04011822	3.359720945	1.0
3	2.749800205	0	0	-16.01274681	-14.17428684	3.498038292	1.0
4	2.749800205	0	0	-15.98635292	-14.36795807	3.599958897	1.0
[LeftHand]
1	2.295179844	0	0	-15.63153744	-8.622663498	-2.96073699	1.0
2	2.295179844	0	0	-15.54626751	-8.749840736	-3.167100906	1.0
3	2.295179844	0	0	-15.29963875	-8.728971481	-3.645739555	1.0
4	2.295179844	0	0	-15.255126	-8.858221054	-3.582838058	1.0
[RightShoulder]
1	-0.3601199985	1.946700096	-0.02662999928	-6.023906708	2.5993433	175.0970306	1.0
2	-0.3601199985	1.946700096	-0.02662999928	-5.961056709	2.594831467	175.1915894	1.0
3	-0.3601199985	1.946700096	-0.02662999928	-5.934803009	2.610447407	175.1788635	1.0
4	-0.3601199985	1.946700096	-0.02662999928	-5.937644005	2.62486124	175.1968842	1.0
[RightArm]
1	-1.140689969	0	0	52.13032532	-1.252486229	-95.90700531	1.0
2	-1.140689969	0	0	51.88087845	-1.209040165	-95.99048615	1.0
3	-1.140689969	0	0	51.98697662	-1.224412203	-95.98435211	1.0
4	-1.140689969	0	0	51.74943161	-1.279465318	-96.05726624	1.0
[RightForeArm]
1	-2.749800205	0	0	-5.449699402	11.1797533	173.7604065	1.0
2	-2.749800205	0	0	-5.228986263	11.15476513	173.8900757	1.0
3	-2.749800205	0	0	-5.373661041	11.04791641	173.8257751	1.0
4	-2.749800205	0	0	-5.291958809	11.06509304	173.8814697	1.0
[RightHand]
1	-2.295179844	0	0	-5.157617092	5.917085171	173.8344421	1.0
2	-2.295179844	0	0	-4.955142021	5.9748106	173.8105316	1.0
3	-2.295179844	0	0	-5.091691971	5.937979698	173.9191437	1.0
4	-2.295179844	0	0	-5.016170502	5.959504128	173.9086914	1.0
[LeftUpLeg]
1	0.9094099998	0	0	-5.287343502	0.7840769887	89.35845184	1.0
2	0.9094099998	0	0	-5.346780777	1.007601023	89.32814026	1.0
3	0.9094099998	0	0	-5.438688278	1.262693882	89.27285767	1.0
4	0.9094099998	0	0	-5.528759003	1.306390882	89.20733643	1.0
[LeftLeg]
1	0	-4.498080254	0	3.582325935	-6.990594864	86.42385864	1.0
2	0	-4.498080254	0	3.81816411	-7.288337708	86.33966827	1.0
3	0	-4.498080254	0	4.272623539	-7.697677135	86.21528625	1.0
4	0	-4.498080254	0	4.797676086	-8.014032364	86.13693237	1.0
[LeftFoot]
1	0	-3.729400158	0	-85.58365631	118.5284576	-27.0475769	1.0
2	0	-3.729400158	0	-85.61412811	118.6372223	-26.89870262	1.0
3	0	-3.729400158	0	-85.59654236	118.8003235	-26.63652802	1.0
4	0	-3.729400158	0	-85.35185242	119.2405701	-26.09173012	1.0
[LeftToeBase]
1	0	-0.5911099911	1.364109993	0	0	0	1.0
2	0	-0.5911099911	1.364109993	0	0	0	1.0
3	0	-0.5911099911	1.364109993	0	0	0	1.0
4	0	-0.5911099911	1.364109993	0	0	0	1.0
[RightUpLeg]
1	-0.9094099998	0	0	1.617990613	-10.67839241	90.94208527	1.0
2	-0.9094099998	0	0	1.630042076	-10.68452168	90.93456268	1.0
3	-0.9094099998	0	0	1.761902332	-10.43762589	90.9029541	1.0
4	-0.9094099998	0	0	1.966996193	-10.33094978	90.86542511	1.0
[RightLeg]
1	0	-4.498080254	0	7.260403633	-1.577236056	90.24503326	1.0
2	0	-4.498080254	0	7.332633495	-1.932661057	90.11871338	1.0
3	0	-4.498080254	0	7.220321655	-1.790905714	90.02416992	1.0
4	0	-4.498080254	0	6.997388363	-2.432765961	89.86087799	1.0
[RightFoot]
1	0	-3.729400158	0	29.09696198	61.14669418	84.23845673	1.0
2	0	-3.729400158	0	29.77703476	61.27436447	85.01856995	1.0
3	0	-3.729400158	0	29.56489372	61.11791229	84.81811523	1.0
4	0	-3.729400158	0	30.6920166	61.34926605	86.04830933	1.0
[RightToeBase]
1	0	-0.5911099911	1.364109993	0	0	0	1.0
2	0	-0.5911099911	1.364109993	0	0	0	1.0
3	0	-0.5911099911	1.364109993	0	0	0	1.0
4	0	-0.5911099911	1.364109993	0	0	0	1.0
[EndOfFile]
